static pose
version=1
nRows=1
nColumns=38
inDegrees=yes
endheader
time	pelvis_tilt	pelvis_list	pelvis_rotation	pelvis_tx	pelvis_ty	pelvis_tz	hip_flexion_r	hip_adduction_r	hip_rotation_r	knee_angle_r	ankle_angle_r	subtalar_angle_r	mtp_angle_r	hip_flexion_l	hip_adduction_l	hip_rotation_l	knee_angle_l	ankle_angle_l	subtalar_angle_l	mtp_angle_l	lumbar_extension	lumbar_bending	lumbar_rotation	arm_flex_r	arm_add_r	arm_rot_r	elbow_flex_r	pro_sup_r	wrist_flex_r	wrist_dev_r	arm_flex_l	arm_add_l	arm_rot_l	elbow_flex_l	pro_sup_l	wrist_flex_l	wrist_dev_l
      0.00000000	      5.00563097	      0.99100558	     -0.14922401	     -0.02771211	      0.87400562	     -0.00791844	    -12.76313206	     -1.70434310	      7.37527325	      1.09656078	     12.52668012	      0.00000000	      0.00000000	    -11.18665894	      0.49564470	      8.33804941	     -1.94387614	     13.07937387	      0.00000000	      0.00000000	     -9.12919108	      0.05905404	      4.56272585	      0.28448919	     -6.78839264	     -8.41166669	     23.06492155	    117.09566983	      0.00000000	      0.00000000	      4.37151102	     -5.86617542	      1.71050033	     23.74351552	    118.22462695	      0.00000000	      0.00000000
